<svg xmlns="http://www.w3.org/2000/svg" viewBox="0 0 1920 1080"><defs><style>.cls-1{opacity:0.2;}.cls-2{fill:#a64b63;}.cls-3{fill:#fff;}.cls-3,.cls-4{stroke:#a64b63;stroke-linecap:round;stroke-miterlimit:10;stroke-width:6px;}.cls-4{fill:none;}</style></defs><title>Artboard 1</title><g id="Layer_2" data-name="Layer 2"><g class="cls-1"><path class="cls-2" d="M959.24,592l5.27-5.4L979,571.79,1000.22,550l26.08-26.69,28.42-29.1,28.7-29.37,26.88-27.53,22.61-23.14,16.27-16.66c2.59-2.65,5.19-5.27,7.76-7.94l.33-.33a33.39,33.39,0,0,0,8.78-21.22l-1.07-8a22.64,22.64,0,0,0-5.37-10.21,15.15,15.15,0,0,0-5.38-5.38,22.65,22.65,0,0,0-10.2-5.37,32,32,0,0,0-23.12,3,959.77,959.77,0,0,0-93,58.33,1047.16,1047.16,0,0,0-91.33,72.68q-23,20.49-44.6,42.38l47.12,6.07q-27.75-37.28-57-73.41-27.09-33.43-55.53-65.72-16-18.15-32.43-35.93A33.34,33.34,0,0,0,773,337.76l-8,1.07a22.65,22.65,0,0,0-10.2,5.37,15.07,15.07,0,0,0-5.38,5.38,22.65,22.65,0,0,0-5.37,10.2l-1.07,8a29.84,29.84,0,0,0,4.09,15.14l13,17.91,31.05,42.85,37.55,51.8,32.53,44.89c5.24,7.23,10.4,14.52,15.72,21.68l.23.32L881.83,526a1059.09,1059.09,0,0,0-75.1,88,969.62,969.62,0,0,0-61.33,89.72q-15.78,26.12-29.86,53.2c-3.54,6.81-5.47,15.55-3,23.12l3,7.16a22.7,22.7,0,0,0,7.73,8.42,15.05,15.05,0,0,0,6.62,3.86A22.63,22.63,0,0,0,741.45,802c7.9-.35,15.56-3,21.21-8.79l18.66-19.1,44.49-45.54,53.76-55L926,626c7.53-7.71,15.15-15.35,22.6-23.14l.33-.33-47.12-6.07,13.27,18.31,31.75,43.8,38.5,53.12,33.16,45.75q8,11.1,16.09,22.2l.22.3a30.92,30.92,0,0,0,41,10.77c6.41-4.13,12.05-10.28,13.79-17.93a31.84,31.84,0,0,0-3-23.12q-21.77-39-45.2-77.13t-48.71-75.42q-14.15-20.9-28.8-41.46A28.93,28.93,0,0,0,934,541.3a22.32,22.32,0,0,0-11.15,3.56c-6.41,4.13-12,10.28-13.79,17.93-1.7,7.46-1.6,16.63,3,23.12q25.95,36.4,50.32,73.89t47.28,76.32q12.82,21.75,25.11,43.79l51.81-30.28-13.28-18.31-31.74-43.8-38.5-53.12L970,588.65q-8-11.1-16.09-22.2l-.22-.3a30.26,30.26,0,0,0-10.76-10.77,22.39,22.39,0,0,0-11.16-3.56,22.75,22.75,0,0,0-12,.54,30,30,0,0,0-13.24,7.71l-18.66,19.1-44.49,45.55-53.76,55-46.46,47.57c-7.53,7.71-15.15,15.35-22.6,23.14l-.33.33,47.12,36.35a963.74,963.74,0,0,1,70-114.37q11-15.48,22.67-30.54l-4.69,6.07q25.14-32.5,52.92-62.86,7.88-8.61,16-17l4.69-6.07a22.36,22.36,0,0,0,3.56-11.16,15.18,15.18,0,0,0,0-8A22.39,22.39,0,0,0,929,532.06l-13-17.91-31.05-42.84-37.54-51.8-32.54-44.9c-5.24-7.22-10.41-14.51-15.72-21.68l-.23-.31L751.76,389q48.22,52.2,92.78,107.62,12.53,15.57,24.73,31.37l-4.69-6.07q11.5,14.9,22.74,30a30.26,30.26,0,0,0,10.77,10.76,22.32,22.32,0,0,0,11.15,3.56,22.75,22.75,0,0,0,12-.54A29.89,29.89,0,0,0,934.44,558a990.87,990.87,0,0,1,75.3-68.68q11.19-9.19,22.65-18.06l-6.07,4.69a970,970,0,0,1,96.31-65.61q14.14-8.42,28.56-16.35l-36.35-47.12-5.27,5.4L1095.12,367l-21.26,21.77-26.08,26.7-28.43,29.1L990.66,474l-26.89,27.52-22.61,23.15-16.27,16.66c-2.58,2.64-5.19,5.27-7.75,7.93l-.33.34A31.08,31.08,0,0,0,908,570.77,33.48,33.48,0,0,0,916.81,592c5.72,5.25,13.22,9.14,21.21,8.79S953.58,597.76,959.24,592Z"/></g></g><g id="Layer_1" data-name="Layer 1"><line class="cls-3" x1="65.25" y1="885.55" x2="1854.61" y2="885.55"/><line class="cls-3" x1="997.86" y1="541.73" x2="1854.64" y2="541.73"/><line class="cls-3" x1="65.28" y1="541.73" x2="960" y2="541.73"/><path class="cls-4" d="M711.07,511.28C731.85,322.89,889.76,195,1024.85,194.73h829.79"/><path class="cls-4" d="M65.28,194.73S479,195.27,668,195c109.46-.15,312,138,312,345,0,54.59-71,133-142,133-82,0-121-51.76-128-108.51"/></g></svg>