<svg id="Layer_1" data-name="Layer 1" xmlns="http://www.w3.org/2000/svg" viewBox="0 0 1148 1080"><defs><style>.cls-1{font-size:345.28px;fill:#f2785c;font-family:Nunito-Regular, Nunito;}.cls-2{fill:#fff;}.cls-2,.cls-3{stroke:#f2ab6d;stroke-linecap:round;stroke-miterlimit:10;stroke-width:6px;}.cls-3{fill:none;}</style></defs><title>dquao1Artboard 1</title><text class="cls-1" transform="translate(481.07 638.83)">=</text><line class="cls-2" x1="199.14" y1="413.32" x2="199.14" y2="1062.15"/><path class="cls-3" d="M379,733c-28.46-14.52-54.76-30.83-54.95-60.8-.46-71.18.08-655.7.08-655.7"/><path class="cls-3" d="M449.42,1062.15s-1.39-185.21,0-264.57C449.91,769.89,425,757,396,742.48"/><path class="cls-3" d="M449.52,413.32s-1.4,185.21,0,264.57c1.05,59.63-124.93,59.63-125.35,125.36-.46,71.18,0,258.9,0,258.9"/><line class="cls-2" x1="449.36" y1="16.83" x2="449.36" y2="665.65"/><path class="cls-3" d="M144.47,336.53c28.46-14.53,54.76-30.83,54.95-60.8.46-71.18,0-258.9,0-258.9"/><path class="cls-3" d="M74.07,1061.52s1.4-581.08,0-660.44c-.49-27.69,24.47-40.57,53.47-55.1"/><path class="cls-3" d="M74,16.83S75.37,202,74,281.4C72.92,341,198.9,341,199.32,406.75c.46,71.18,0,258.9,0,258.9"/><line class="cls-2" x1="844.96" y1="664.93" x2="844.96" y2="16.11"/><path class="cls-3" d="M1024.84,345.24c-28.46,14.52-54.76,30.82-54.95,60.79-.46,71.18.08,655.71.08,655.71"/><path class="cls-3" d="M1095.24,16.11s-1.39,185.21,0,264.57c.49,27.69-24.46,40.57-53.47,55.1"/><path class="cls-3" d="M1095.34,664.93s-1.4-185.21,0-264.56C1096.39,340.74,970.41,340.74,970,275c-.46-71.18,0-258.9,0-258.9"/><line class="cls-2" x1="1095.18" y1="1061.43" x2="1095.18" y2="412.61"/><path class="cls-3" d="M790.29,741.73c28.46,14.53,54.76,30.83,55,60.8.46,71.18,0,258.9,0,258.9"/><path class="cls-3" d="M719.89,16.74s1.4,581.08,0,660.44c-.49,27.69,24.47,40.57,53.47,55.09"/><path class="cls-3" d="M719.79,1061.43s1.4-185.21,0-264.57c-1-59.63,124.93-59.63,125.35-125.35.46-71.18,0-258.9,0-258.9"/></svg>