<svg id="Layer_1" data-name="Layer 1" xmlns="http://www.w3.org/2000/svg" viewBox="0 0 1148 1080"><defs><style>.cls-1{font-size:401.06px;fill:#f2785c;font-family:Nunito-Regular, Nunito;}.cls-2{fill:none;stroke:#f2ab6d;stroke-linecap:round;stroke-miterlimit:10;stroke-width:6px;}</style></defs><title>equal2Artboard 1</title><text class="cls-1" transform="translate(452.12 654.12)">=</text><path class="cls-2" d="M146.42,334.9c28.46-14.53,54.76-30.83,55-60.8.45-71.18,0-258.9,0-258.9"/><path class="cls-2" d="M76,620.37s1.4-141.56,0-220.92c-.49-27.69,24.47-40.57,53.48-55.1"/><path class="cls-2" d="M75.92,15.2s1.4,185.21,0,264.57c-1,59.63,124.94,59.63,125.36,125.35"/><path class="cls-2" d="M271.68,547.06c28.46-14.52,54.76-30.83,54.95-60.8.46-71.18,0-470.89,0-470.89"/><path class="cls-2" d="M201.28,671.37s1.4,19.61,0-59.75c-.49-27.69,24.47-40.57,53.47-55.1"/><path class="cls-2" d="M201.18,405.37s1.4,7.2,0,86.56c-1.05,59.63,124.93,59.63,125.35,125.36.46,71.18,0,444.08,0,444.08"/><path class="cls-2" d="M130.7,741.74c-28.46,14.52-54.77,30.82-55,60.79-.45,71.18,0,258.9,0,258.9"/><path class="cls-2" d="M201.19,1061.43s-1.39-185.21,0-264.56c1.06-59.63-124.93-59.63-125.35-125.36-.46-71.18,0-258.9,0-258.9"/><path class="cls-2" d="M146.38,732.14c28.46-14.52,54.77-30.82,55-60.79"/><path class="cls-2" d="M998.45,334.9c-28.46-14.53-54.76-30.83-55-60.8-.46-71.18,0-258.9,0-258.9"/><path class="cls-2" d="M1068.85,620.37s-1.4-141.56,0-220.92c.49-27.69-24.47-40.57-53.47-55.1"/><path class="cls-2" d="M1069,15.2s-1.4,185.21,0,264.57C1070,339.4,944,339.4,943.6,405.12"/><path class="cls-2" d="M873.2,547.06c-28.46-14.52-54.77-30.83-55-60.8-.46-71.18,0-470.89,0-470.89"/><path class="cls-2" d="M943.6,671.37s-1.4,19.61,0-59.75c.48-27.69-24.47-40.57-53.48-55.1"/><path class="cls-2" d="M943.69,405.37s-1.4,7.2,0,86.56c1,59.63-124.93,59.63-125.35,125.36-.46,71.18,0,444.08,0,444.08"/><path class="cls-2" d="M1014.18,741.74c28.46,14.52,54.76,30.82,55,60.79.46,71.18,0,258.9,0,258.9"/><path class="cls-2" d="M943.68,1061.43s1.4-185.21,0-264.56c-1-59.63,124.93-59.63,125.35-125.36.46-71.18,0-258.9,0-258.9"/><path class="cls-2" d="M998.49,732.14c-28.46-14.52-54.76-30.82-55-60.79"/></svg>