<svg id="Layer_1" data-name="Layer 1" xmlns="http://www.w3.org/2000/svg" viewBox="0 0 2464 1059"><defs><style>.cls-1{fill:none;stroke:#f2ab6d;stroke-linecap:round;stroke-miterlimit:10;stroke-width:4px;}.cls-2{font-size:120px;font-family:Nunito-SemiBold, Nunito;font-weight:600;}.cls-2,.cls-3{fill:#a64b63;}</style></defs><title>group4Artboard 1</title><path class="cls-1" d="M189.56,244.15c-14.52,28.46-30.82,54.77-60.8,55-71.18.46-27.09,0-27.09,0"/><path class="cls-1" d="M475,173.75s-141.56,1.4-220.92,0c-27.69-.48-40.57,24.47-55.1,53.48"/><path class="cls-1" d="M88.67,173.66s-33.59,1.4,45.76,0c59.63-1,59.63,124.93,125.36,125.35"/><path class="cls-1" d="M401.73,369.41c-14.52,28.46-30.83,54.76-60.8,55-71.18.45-252.26,0-252.26,0"/><path class="cls-1" d="M526,299s19.6,1.4-59.75,0c-27.7-.49-40.58,24.47-55.1,53.48"/><path class="cls-1" d="M260,298.91s7.2,1.4,86.56,0c59.63-1.05,59.63,124.94,125.35,125.36,71.18.45,185.72,0,185.72,0"/><path class="cls-1" d="M596.4,228.43c14.53-28.46,30.83-54.76,60.8-55"/><path class="cls-1" d="M651.53,298.93C591.9,300,591.9,174,526.18,173.57c-71.18-.45-258.9,0-258.9,0"/><path class="cls-1" d="M586.81,244.12C572.29,272.58,556,298.88,526,299.07"/><text class="cls-2" transform="translate(693.01 329.25)">x</text><path class="cls-1" d="M1071.87,370c14.53,28.46,30.83,54.77,60.8,55,71.18.45,81.33,0,81.33,0"/><path class="cls-1" d="M947.57,299.6s-19.61,1.4,59.75,0c27.69-.48,40.57,24.47,55.09,53.48"/><path class="cls-1" d="M1213.57,299.51s-7.21,1.39-86.57,0c-59.63-1.06-59.63,124.93-125.35,125.35-71.18.46-185.72,0-185.72,0"/><path class="cls-1" d="M877.2,229c-14.53-28.46-30.83-54.76-60.8-55"/><path class="cls-1" d="M822.07,299.52c59.63,1.05,59.63-124.93,125.35-125.35,71.18-.46,258.9,0,258.9,0"/><path class="cls-1" d="M886.79,244.71c14.52,28.46,30.83,54.76,60.8,55"/><text class="cls-2" transform="translate(1962.31 330.21)">=</text><text class="cls-2" transform="translate(1273.04 329.57)">x</text><path class="cls-1" d="M1461.73,244.11c-14.52,28.46-30.83,54.76-60.8,54.95-71.18.46-27.09,0-27.09,0"/><path class="cls-1" d="M1747.21,173.71s-141.56,1.4-220.92,0c-27.69-.49-40.57,24.47-55.1,53.47"/><path class="cls-1" d="M1360.84,173.61s-33.6,1.4,45.76,0c59.63-1.05,59.63,124.93,125.36,125.35l266.22.06c30-.19,46.28-26.49,60.8-54.95"/><path class="cls-1" d="M1929,424c-71.18.46-568.16.32-568.16.32"/><path class="cls-1" d="M1868.57,228.38c14.53-28.46,30.83-54.76,60.8-54.95"/><path class="cls-1" d="M1923.7,298.88c-59.63,1.05-59.63-124.93-125.35-125.35-71.18-.46-258.9,0-258.9,0"/><path class="cls-1" d="M192.1,677.17c-14.52,28.46-30.83,54.76-60.8,55-71.18.45-27.09,0-27.09,0"/><path class="cls-1" d="M477.57,606.77s-141.55,1.4-220.91,0c-27.69-.49-40.57,24.47-55.1,53.47"/><path class="cls-1" d="M91.21,606.67s-33.6,1.4,45.76,0c59.63-1,59.63,124.94,125.36,125.36"/><path class="cls-1" d="M404.27,802.43c-14.53,28.46-30.83,54.76-60.8,55-71.18.46-252.26,0-252.26,0"/><path class="cls-1" d="M528.57,732s19.61,1.4-59.75,0c-27.69-.49-40.57,24.47-55.09,53.47"/><path class="cls-1" d="M262.57,731.93s7.21,1.4,86.57,0c59.63-1,59.63,124.93,125.35,125.35,71.18.46,185.72,0,185.72,0"/><path class="cls-1" d="M598.94,661.45c14.53-28.46,30.83-54.77,60.8-55"/><path class="cls-1" d="M654.07,731.94C594.44,733,594.44,607,528.72,606.59c-71.18-.46-258.9,0-258.9,0"/><path class="cls-1" d="M589.35,677.13c-14.52,28.46-30.83,54.77-60.8,55"/><text class="cls-2" transform="translate(695.55 762.26)">x</text><path class="cls-1" d="M1074.41,803c14.52,28.46,30.83,54.76,60.8,55,71.18.46,81.33,0,81.33,0"/><path class="cls-1" d="M950.1,732.62s-19.6,1.4,59.75,0c27.7-.49,40.58,24.47,55.1,53.47"/><path class="cls-1" d="M1216.1,732.52s-7.2,1.4-86.56,0c-59.63-1-59.63,124.93-125.35,125.36-71.18.45-185.72,0-185.72,0"/><path class="cls-1" d="M879.74,662c-14.53-28.46-30.83-54.76-60.8-55"/><path class="cls-1" d="M824.61,732.54C884.24,733.59,884.24,607.6,950,607.18c71.18-.46,258.9,0,258.9,0"/><path class="cls-1" d="M889.33,677.73c14.52,28.46,30.83,54.76,60.8,54.95"/><text class="cls-2" transform="translate(1254.58 762.59)">x</text><path class="cls-1" d="M1464.27,677.12c-14.52,28.46-30.83,54.77-60.8,55-71.18.45-27.1,0-27.1,0"/><path class="cls-1" d="M1749.74,606.72s-141.56,1.4-220.91,0c-27.69-.49-40.58,24.47-55.1,53.48"/><path class="cls-1" d="M1363.37,606.62s-33.59,1.4,45.77,0c59.63-1,59.63,124.94,125.36,125.36l266.22.06c30-.19,46.28-26.49,60.8-54.95"/><path class="cls-1" d="M1931.54,857c-71.18.45-568.17.31-568.17.31"/><path class="cls-1" d="M1871.11,661.4c14.52-28.46,30.83-54.76,60.8-55"/><path class="cls-1" d="M1926.24,731.9C1866.61,733,1866.61,607,1800.89,606.54c-71.18-.45-258.9,0-258.9,0"/><path class="cls-3" d="M120.11,91.77C94.65,102.45,73,120.35,56.22,142.13c-17,22.06-29.18,47.81-36.36,74.69C10.85,250.59,9.2,286,11.29,320.7,12.36,338.39,14.4,356,17,373.53c2.13,14.68,4.48,29.37,8.05,43.77,6.34,25.54,16.92,51.88,37.88,68.93a83.71,83.71,0,0,0,7.93,5.7c1.63,1,3.14-1.56,1.51-2.59-22.74-14.43-35-39.42-42.22-64.56a333.23,333.23,0,0,1-8.38-39.69c-2.73-17.23-5-34.52-6.52-51.9-2.93-34.52-2.59-69.61,4.69-103.6,5.86-27.35,16.51-53.67,32.3-76.82,15.19-22.29,35.29-41.49,59.43-53.8q4.56-2.32,9.28-4.31c1.76-.74,1-3.64-.79-2.89Z"/><path class="cls-3" d="M873.06,522.57c-25.45,10.69-47.09,28.58-63.89,50.36-17,22.06-29.17,47.81-36.35,74.69-9,33.77-10.67,69.13-8.57,103.89,1.07,17.68,3.1,35.3,5.65,52.83C772,819,774.38,833.7,778,848.1c6.34,25.54,16.92,51.89,37.88,68.93a82,82,0,0,0,7.93,5.7c1.64,1,3.15-1.55,1.52-2.59-22.75-14.43-35-39.42-42.22-64.56a331.26,331.26,0,0,1-8.38-39.69c-2.74-17.22-5-34.52-6.52-51.9-2.93-34.52-2.6-69.61,4.68-103.59,5.86-27.36,16.51-53.67,32.3-76.83,15.2-22.29,35.3-41.48,59.43-53.79q4.56-2.34,9.29-4.32c1.75-.74,1-3.64-.8-2.89Z"/><path class="cls-3" d="M1899.86,915.58c25.92-10.89,48-29.11,65.05-51.29,17.33-22.47,29.72-48.69,37-76.07,9.18-34.39,10.87-70.41,8.73-105.81-1.09-18-3.16-35.95-5.76-53.8-2.17-15-4.56-29.91-8.2-44.58-6.45-26-17.23-52.84-38.58-70.19a83.71,83.71,0,0,0-8.07-5.81c-1.63-1-3.14,1.55-1.51,2.59,23.17,14.7,35.67,40.16,43,65.77a339.86,339.86,0,0,1,8.53,40.44c2.79,17.54,5.14,35.16,6.64,52.87,3,35.16,2.65,70.9-4.77,105.52-6,27.87-16.82,54.67-32.9,78.26-15.48,22.71-36,42.27-60.55,54.81q-4.65,2.37-9.46,4.39c-1.75.74-1,3.65.8,2.9Z"/><path class="cls-3" d="M1151.55,510.54c25.91-10.88,48-29.1,65-51.28,17.33-22.47,29.72-48.69,37-76.07,9.18-34.4,10.86-70.41,8.73-105.81-1.09-18-3.16-35.95-5.76-53.8-2.17-15-4.56-29.91-8.2-44.59-6.46-26-17.23-52.83-38.58-70.19a85.47,85.47,0,0,0-8.07-5.81c-1.63-1-3.14,1.56-1.51,2.59,23.17,14.71,35.67,40.17,43,65.78a339.69,339.69,0,0,1,8.53,40.43c2.79,17.55,5.14,35.17,6.64,52.88,3,35.16,2.64,70.9-4.77,105.52-6,27.87-16.82,54.67-32.9,78.26-15.48,22.71-36,42.26-60.55,54.8q-4.65,2.37-9.46,4.4c-1.76.74-1,3.64.8,2.89Z"/></svg>