<svg id="Layer_1" data-name="Layer 1" xmlns="http://www.w3.org/2000/svg" viewBox="0 0 2464 520"><defs><style>.cls-1{fill:none;stroke:#f2ab6d;stroke-linecap:round;stroke-miterlimit:10;stroke-width:4px;}.cls-2{font-size:149.82px;fill:#a64b63;font-family:Nunito-SemiBold, Nunito;font-weight:600;}</style></defs><title>group2Artboard 1</title><path class="cls-1" d="M153.39,199.26c-18.13,35.53-38.49,68.37-75.91,68.61-88.86.57-33.83,0-33.83,0"/><path class="cls-1" d="M509.8,111.36s-176.74,1.75-275.81,0c-34.58-.6-50.66,30.55-68.79,66.77"/><path class="cls-1" d="M27.42,111.24s-41.94,1.75,57.14,0c74.45-1.31,74.45,156,156.5,156.51"/><path class="cls-1" d="M418.28,355.64c-18.14,35.53-38.49,68.37-75.91,68.61-88.87.57-314.95,0-314.95,0"/><path class="cls-1" d="M573.47,267.75s24.48,1.74-74.6,0c-34.57-.61-50.65,30.54-68.79,66.76"/><path class="cls-1" d="M241.37,267.62s9,1.75,108.08,0c74.45-1.31,74.45,156,156.5,156.51,88.87.57,231.86,0,231.86,0"/><path class="cls-1" d="M661.32,179.63c18.14-35.54,38.49-68.37,75.91-68.61"/><path class="cls-1" d="M730.15,267.64c-74.44,1.31-74.44-156-156.5-156.5-88.87-.57-323.23,0-323.23,0"/><path class="cls-1" d="M649.35,199.21c-18.13,35.53-38.49,68.37-75.91,68.61"/><text class="cls-2" transform="translate(781.94 305.5)">x</text><text class="cls-2" transform="translate(1615.06 305.45)">=</text><path class="cls-1" d="M1726.13,413.63c88.87.57,231.86,0,231.86,0"/><line class="cls-1" x1="1943.65" y1="100.64" x2="1725.78" y2="100.64"/><path class="cls-1" d="M1958,256.5c-47.44,0-194.8.58-232.22.82"/><path class="cls-1" d="M1469.21,199.59c18.13,35.53,38.49,68.37,75.91,68.61,88.86.57,33.83,0,33.83,0"/><path class="cls-1" d="M1112.8,111.69s176.74,1.75,275.81,0c34.58-.61,50.66,30.55,68.79,66.77"/><path class="cls-1" d="M1595.18,111.57s41.94,1.75-57.14,0c-74.45-1.31-74.45,156-156.51,156.51"/><path class="cls-1" d="M1204.32,356c18.14,35.53,38.49,68.37,75.91,68.61,88.87.57,315,0,315,0"/><path class="cls-1" d="M1049.13,268.08s-24.48,1.74,74.6,0c34.57-.61,50.65,30.54,68.78,66.76"/><path class="cls-1" d="M1381.23,268s-9,1.75-108.08,0c-74.45-1.31-74.45,156-156.5,156.51-88.87.57-231.86,0-231.86,0"/><path class="cls-1" d="M961.27,180c-18.13-35.53-38.48-68.37-75.9-68.61"/><path class="cls-1" d="M892.45,268c74.44,1.31,74.44-156,156.5-156.5,88.87-.57,323.23,0,323.23,0"/><path class="cls-1" d="M973.25,199.54c18.13,35.53,38.49,68.37,75.91,68.61"/></svg>