<svg id="Layer_1" data-name="Layer 1" xmlns="http://www.w3.org/2000/svg" viewBox="0 0 2464 520"><defs><style>.cls-1{fill:none;stroke:#f2ab6d;stroke-linecap:round;stroke-miterlimit:10;stroke-width:4px;}.cls-2{font-size:120px;fill:#a64b63;font-family:Nunito-SemiBold, Nunito;font-weight:600;}</style></defs><title>group1Artboard 1</title><path class="cls-1" d="M132.56,244.15c-14.52,28.46-30.82,54.77-60.8,55-71.18.46-27.09,0-27.09,0"/><path class="cls-1" d="M418,173.75s-141.56,1.4-220.92,0c-27.69-.48-40.57,24.47-55.1,53.48"/><path class="cls-1" d="M31.67,173.66s-33.59,1.4,45.76,0c59.63-1,59.63,124.93,125.36,125.35"/><path class="cls-1" d="M344.73,369.41c-14.52,28.46-30.83,54.76-60.8,55-71.18.45-252.26,0-252.26,0"/><path class="cls-1" d="M469,299s19.6,1.4-59.75,0c-27.7-.49-40.58,24.47-55.1,53.48"/><path class="cls-1" d="M203,298.91s7.2,1.4,86.56,0c59.63-1.05,59.63,124.94,125.35,125.36,71.18.45,185.72,0,185.72,0"/><path class="cls-1" d="M539.4,228.43c14.53-28.46,30.83-54.76,60.8-55"/><path class="cls-1" d="M594.53,298.93C534.9,300,534.9,174,469.18,173.57c-71.18-.45-258.9,0-258.9,0"/><path class="cls-1" d="M529.81,244.12C515.29,272.58,499,298.88,469,299.07"/><text class="cls-2" transform="translate(636.01 329.25)">x</text><path class="cls-1" d="M1014.87,370c14.53,28.46,30.83,54.77,60.8,55,71.18.45,81.33,0,81.33,0"/><path class="cls-1" d="M890.57,299.6s-19.61,1.4,59.75,0c27.69-.48,40.57,24.47,55.09,53.48"/><path class="cls-1" d="M1156.57,299.51s-7.21,1.39-86.57,0c-59.63-1.06-59.63,124.93-125.35,125.35-71.18.46-185.72,0-185.72,0"/><path class="cls-1" d="M820.2,229c-14.53-28.46-30.83-54.76-60.8-55"/><path class="cls-1" d="M765.07,299.52c59.63,1.05,59.63-124.93,125.35-125.35,71.18-.46,258.9,0,258.9,0"/><path class="cls-1" d="M829.79,244.71c14.52,28.46,30.83,54.76,60.8,55"/><text class="cls-2" transform="translate(1212.31 329.21)">=</text><path class="cls-1" d="M2146.81,370c14.52,28.46,30.83,54.77,60.8,55,71.18.45,81.33,0,81.33,0"/><path class="cls-1" d="M2022.5,299.6s-19.61,1.4,59.75,0c27.69-.48,40.57,24.47,55.1,53.48"/><path class="cls-1" d="M2288.5,299.51s-7.2,1.39-86.56,0c-59.63-1.06-59.63,124.93-125.36,125.35-71.18.46-185.71,0-185.71,0"/><path class="cls-1" d="M1952.13,229c-14.52-28.46-30.82-54.76-60.79-55"/><path class="cls-1" d="M2281.26,174.17s-187.72-.46-258.9,0c-65.72.42-64.36,125.35-125.36,125.35l-10,0"/><path class="cls-1" d="M1961.73,244.71c14.52,28.46,30.82,54.76,60.79,55"/><path class="cls-1" d="M1423.89,244.75c-14.52,28.46-30.83,54.76-60.8,54.95-71.18.46-27.09,0-27.09,0"/><path class="cls-1" d="M1709.36,174.35s-141.56,1.4-220.91,0c-27.69-.49-40.57,24.46-55.1,53.47"/><path class="cls-1" d="M1323,174.25s-33.6,1.4,45.76,0c59.63-1.05,59.63,124.93,125.36,125.35"/><path class="cls-1" d="M1636.06,370c-14.53,28.46-30.83,54.77-60.8,55-71.18.45-252.26,0-252.26,0"/><path class="cls-1" d="M1760.36,299.6s19.61,1.4-59.75,0c-27.69-.48-40.57,24.47-55.09,53.48"/><path class="cls-1" d="M1494.36,299.51s7.21,1.39,86.57,0c59.63-1.06,59.63,124.93,125.35,125.35,71.18.46,185.72,0,185.72,0"/><path class="cls-1" d="M1830.73,229c14.52-28.46,30.83-54.76,60.8-55"/><path class="cls-1" d="M1885.86,299.52c-59.63,1.05-59.63-124.93-125.35-125.35-71.18-.46-258.9,0-258.9,0"/><path class="cls-1" d="M1821.14,244.71c-14.52,28.46-30.83,54.76-60.8,55"/></svg>