<svg id="Layer_1" data-name="Layer 1" xmlns="http://www.w3.org/2000/svg" viewBox="0 0 1148 1325"><defs><style>.cls-1{fill:none;}.cls-1,.cls-5{stroke:#f2ab6d;stroke-linecap:round;stroke-miterlimit:10;stroke-width:6px;}.cls-2{font-size:69.57px;}.cls-2,.cls-6{font-family:Nunito-Regular, Nunito;}.cls-3{letter-spacing:-0.01em;}.cls-4{letter-spacing:-0.01em;}.cls-5{fill:#a64b63;}.cls-6{font-size:100px;fill:#fff;}</style></defs><title>markov2Artboard 1</title><path class="cls-1" d="M718.17,865.81c10.1-19.8,21.45-38.1,42.3-38.24,49.52-.31,180.12,0,180.12,0"/><path class="cls-1" d="M519.56,914.78s98.49-1,153.7,0c19.26.34,28.22-17,38.33-37.2"/><path class="cls-1" d="M504.68,740.43c49.52-.32,435.79,0,435.79,0"/><path class="cls-1" d="M521.7,740.5c-49.52-.32-309,0-309,0s40.61,0-38,0c-189.23,0-187.15,490.48,0,490.48H973.42c198.28,0,185.76-490.48,0-490.48s-32.95-.09-32.95-.09"/><path class="cls-1" d="M669.14,827.71s-217.25-1-272.46,0"/><path class="cls-1" d="M534.47,915c-49.52.32-321.77,0-321.77,0h-38c-57.05,0-56.35,152.53,0,152.53H973.42c58.44,0,50.79-152.36,0-152.36s-32.83-.3-32.83-.3-128.86-1-184.07,0c-41.48.73-41.48-86.92-87.21-87.21"/><path class="cls-1" d="M396.77,827.7c-55.21,1-184.07,0-184.07,0h-38c-135.27,0-131.49,318.42,0,318.42H973.42c144,0,130.1-318.63,0-318.63-64,0-105.74-.49-105.74-.49"/><text class="cls-2" transform="translate(354.14 1033.93)">Mar<tspan class="cls-3" x="119.94" y="0">k</tspan><tspan class="cls-4" x="154.1" y="0">o</tspan><tspan x="192.3" y="0">v M</tspan><tspan class="cls-4" x="304.51" y="0">ov</tspan><tspan x="378.05" y="0">e I</tspan></text><rect class="cls-5" x="259.68" y="684" width="260" height="273" rx="37.56"/><text class="cls-6" transform="translate(362.89 857.6)">B</text><rect class="cls-5" x="638.68" y="684" width="260" height="273" rx="37.56"/><text class="cls-6" transform="translate(738.24 857.6)">A</text><path class="cls-1" d="M718.17,249.93c10.1-19.8,21.45-38.1,42.3-38.23,49.52-.32,180.12,0,180.12,0"/><path class="cls-1" d="M519.56,298.91s98.49-1,153.7,0c19.26.34,28.22-17,38.33-37.2"/><path class="cls-1" d="M504.68,124.56c49.52-.32,435.79,0,435.79,0"/><path class="cls-1" d="M521.7,124.62c-49.52-.31-309,0-309,0s40.61,0-38,0c-189.23,0-187.15,490.48,0,490.48H973.42c198.28,0,185.76-490.48,0-490.48s-32.95-.09-32.95-.09"/><path class="cls-1" d="M669.14,211.84s-217.25-1-272.46,0"/><path class="cls-1" d="M534.47,299.1c-49.52.32-321.77,0-321.77,0h-38c-57.05,0-56.35,152.53,0,152.53H973.42c58.44,0,50.79-152.36,0-152.36s-32.83-.29-32.83-.29-128.86-1-184.07,0c-41.48.73-41.48-86.92-87.21-87.21"/><path class="cls-1" d="M396.77,211.83c-55.21,1-184.07,0-184.07,0h-38c-135.27,0-131.49,318.42,0,318.42H973.42c144,0,130.1-318.64,0-318.64-64,0-105.74-.48-105.74-.48"/><rect class="cls-5" x="259.68" y="68.13" width="260" height="273" rx="37.56"/><text class="cls-6" transform="translate(360.24 241.73)">A</text><rect class="cls-5" x="638.68" y="68.13" width="260" height="273" rx="37.56"/><text class="cls-6" transform="translate(740.89 241.73)">B</text></svg>