<svg id="Layer_1" data-name="Layer 1" xmlns="http://www.w3.org/2000/svg" viewBox="0 0 1148 1080"><defs><style>.cls-1{fill:none;}.cls-1,.cls-5{stroke:#f2ab6d;stroke-linecap:round;stroke-miterlimit:10;stroke-width:6px;}.cls-2{font-size:69.57px;}.cls-2,.cls-6{font-family:Nunito-Regular, Nunito;}.cls-3{letter-spacing:-0.01em;}.cls-4{letter-spacing:-0.01em;}.cls-5{fill:#a64b63;}.cls-6{font-size:100px;fill:#fff;}</style></defs><title>markov2realArtboard 1</title><path class="cls-1" d="M723.49,676.81c10.1-19.8,21.45-38.1,42.3-38.24,49.52-.31,180.12,0,180.12,0"/><path class="cls-1" d="M524.88,725.78s98.49-1,153.7,0c19.26.34,28.22-17,38.33-37.2"/><path class="cls-1" d="M575.88,589.66c10.11-19.8,21.45-38.1,42.3-38.23,49.52-.32,327.61,0,327.61,0"/><path class="cls-1" d="M489.4,638.64s-13.64-1,41.57,0c19.27.34,28.23-17,38.33-37.2"/><path class="cls-1" d="M674.46,638.71s-5-1-60.22,0c-41.49.73-41.49-86.92-87.21-87.21-49.52-.32-309,0-309,0s40.61,0-38,0c-189.23,0-187.14,490.48,0,490.48H978.74c198.28,0,185.76-490.48,0-490.48s-33-.09-33-.09"/><path class="cls-1" d="M539.8,726c-49.53.32-321.77,0-321.77,0h-38c-57,0-56.35,152.53,0,152.53H978.74c58.44,0,50.79-152.36,0-152.36s-32.83-.3-32.83-.3-128.85-1-184.06,0c-41.49.73-41.49-86.92-87.22-87.21"/><path class="cls-1" d="M402.09,638.7c-55.21,1-184.06,0-184.06,0h-38c-135.26,0-131.49,318.42,0,318.42H978.74c144,0,130.1-318.63,0-318.63H945.91"/><path class="cls-1" d="M447.12,676.83c10.1-19.8,21.45-38.1,42.3-38.23"/><text class="cls-2" transform="translate(350.55 844.93)">Mar<tspan class="cls-3" x="119.94" y="0">k</tspan><tspan class="cls-4" x="154.1" y="0">o</tspan><tspan x="192.3" y="0">v M</tspan><tspan class="cls-4" x="304.51" y="0">ov</tspan><tspan x="378.05" y="0">e II</tspan></text><rect class="cls-5" x="349.8" y="507" width="260" height="182" rx="37.56"/><text class="cls-6" transform="translate(463.56 641.6)">?</text><path class="cls-1" d="M399.2,123.41c49.53-.31,544.15,0,544.15,0"/><path class="cls-1" d="M537.24,210.82c-49.52.32-321.77,0-321.77,0h-38c-57,0-56.35,152.53,0,152.53H976.19c58.44,0,50.78-152.37,0-152.37s-32.84-.29-32.84-.29-350.93-1-406.15,0"/><path class="cls-1" d="M399.53,123.54c-55.21,1-184.06,0-184.06,0h-38C56.2,123.54,46,442,177.5,442H976.19c144,0,130.09-318.64,0-318.64H943.35"/><rect class="cls-5" x="347.24" y="72.84" width="260" height="182" rx="37.56"/><text class="cls-6" transform="translate(461 207.44)">?</text></svg>