<svg id="Layer_1" width="1000px" height="1000px" data-name="Layer 1" xmlns="http://www.w3.org/2000/svg" viewBox="0 0 1148 1080"><defs><style>.cls-1{fill:none;stroke:#f2ab6d;stroke-linecap:round;stroke-miterlimit:10;stroke-width:6px;}.cls-2{font-size:69.57px;font-family:Nunito-Regular, Nunito;}.cls-3{letter-spacing:-0.08em;}.cls-4{letter-spacing:0em;}.cls-5{letter-spacing:-0.01em;}</style></defs><title>traceArtboard 1</title><path class="cls-1" d="M707.7,417.81c10.1-19.8,21.44-38.1,42.29-38.24,49.53-.31,180.12,0,180.12,0"/><path class="cls-1" d="M509.09,466.78s98.48-1,153.69,0c19.27.34,28.23-17,38.34-37.2"/><path class="cls-1" d="M560.09,330.66c10.1-19.8,21.45-38.1,42.3-38.23,49.52-.32,327.61,0,327.61,0"/><path class="cls-1" d="M473.61,379.64s-13.65-1,41.57,0c19.26.34,28.22-17,38.33-37.2"/><path class="cls-1" d="M658.67,379.71s-5-1-60.23,0c-41.48.73-41.48-86.92-87.21-87.21-49.52-.32-309,0-309,0s40.6,0-38,0C-25,292.52-22.88,783,164.27,783H963c198.28,0,185.75-490.48,0-490.48s-33-.09-33-.09"/><path class="cls-1" d="M424.65,428.75c-10.1,19.8-21.45,38.1-42.3,38.23-49.52.32-180.12,0-180.12,0h-38c-57.05,0-56.36,152.53,0,152.53H963c58.44,0,50.79-152.36,0-152.36s-32.84-.3-32.84-.3-128.85-1-184.06,0c-41.49.73-41.49-86.92-87.21-87.21"/><path class="cls-1" d="M653.63,466.91s-130.6.32-180.12,0c-45.73-.29-45.73-87.94-87.21-87.21-55.21,1-184.07,0-184.07,0s13.45-2.72-38,0c-114.1,6.05-131.49,318.42,0,318.42H963c144,0,130.1-318.63,0-318.63H930.11"/><path class="cls-1" d="M431.32,417.83c10.11-19.8,21.45-38.1,42.3-38.23"/><text class="cls-2" transform="translate(358.8 585.93)"><tspan class="cls-3">T</tspan><tspan class="cls-4" x="36.32" y="0">r</tspan><tspan x="60.6" y="0">ace Closu</tspan><tspan class="cls-5" x="359.68" y="0">r</tspan><tspan x="383.54" y="0">e</tspan></text></svg>